<?xml version="1.0" encoding="utf-8"?>
<!-- Generator: Adobe Illustrator 23.1.0, SVG Export Plug-In . SVG Version: 6.00 Build 0)  -->
<svg version="1.1" xmlns="http://www.w3.org/2000/svg" xmlns:xlink="http://www.w3.org/1999/xlink" x="0px" y="0px"
	 viewBox="0 0 1417.32 1417.32" enable-background="new 0 0 1417.32 1417.32" xml:space="preserve">
<g id="Layer_11" display="none">
	<rect x="-168" y="-80" display="inline" width="1643" height="1569"/>
</g>
<g id="Ñëîé_2">
	<path fill="#626065" stroke="#FFFFFF" stroke-width="6" stroke-miterlimit="10" d="M1343.19,74.81
		c69.08,69.09,69.08,181.49,0,250.57c-34.54,34.54-79.91,51.81-125.28,51.81c-45.37,0-90.74-17.27-125.28-51.81
		c-69.08-69.08-69.08-181.48,0-250.57C1161.72,5.72,1274.12,5.73,1343.19,74.81"/>
	<g>
		<circle fill="#DF0032" stroke="#FFFFFF" stroke-width="12" stroke-miterlimit="10" cx="1217.91" cy="200.1" r="100"/>
	</g>
	<g>
		
			<rect x="984.34" y="351.43" transform="matrix(0.7071 -0.7071 0.7071 0.7071 44.3604 849.0244)" fill="#626065" stroke="#FFFFFF" stroke-width="4" stroke-miterlimit="10" width="125.41" height="39.06"/>
	</g>
	<g>
		<g>
			<g>
				<path fill="#626065" stroke="#FFFFFF" stroke-width="6" stroke-miterlimit="10" d="M175.3,720.71
					C78.8,705.46,12.71,614.54,27.97,518.04s106.18-162.59,202.67-147.33c96.5,15.26,162.59,106.18,147.33,202.67
					C362.71,669.88,271.8,735.97,175.3,720.71z M224.54,409.29C149.32,397.4,78.44,448.92,66.55,524.14
					c-11.89,75.22,39.63,146.1,114.85,157.99c75.22,11.89,146.1-39.63,157.99-114.85C351.28,492.06,299.76,421.19,224.54,409.29z"/>
			</g>
			<g>
				
					<ellipse transform="matrix(0.3782 -0.9257 0.9257 0.3782 -378.9708 527.2233)" fill="#08BF41" stroke="#FFFFFF" stroke-width="6" stroke-miterlimit="10" cx="202.97" cy="545.71" rx="100" ry="100"/>
			</g>
			<g>
				
					<rect x="422.11" y="520.75" transform="matrix(0.1562 -0.9877 0.9877 0.1562 -203.623 928.5507)" fill="#626065" stroke="#FFFFFF" stroke-width="6" stroke-miterlimit="10" width="39.06" height="125.4"/>
			</g>
		</g>
		<g>
			<g>
				<path fill="#626065" stroke="#FFFFFF" stroke-width="6" stroke-miterlimit="10" d="M1290.54,1303.35
					c-86.24,55.41-201.49,30.32-256.9-55.92c-55.41-86.24-30.32-201.49,55.93-256.9c86.24-55.41,201.49-30.31,256.89,55.93
					C1401.87,1132.7,1376.78,1247.94,1290.54,1303.35z M1111.72,1025.01c-67.23,43.19-86.79,133.03-43.6,200.26
					c43.19,67.23,133.02,86.79,200.26,43.59c67.23-43.19,86.78-133.02,43.59-200.25C1268.78,1001.38,1178.95,981.82,1111.72,1025.01
					z"/>
			</g>
			<g>
				
					<ellipse transform="matrix(0.7071 -0.7071 0.7071 0.7071 -462.4509 1177.4242)" fill="#FFFFFF" stroke="#FFFFFF" stroke-width="6" stroke-miterlimit="10" cx="1190.05" cy="1146.94" rx="104.93" ry="104.93"/>
			</g>
			<g>
				
					<rect x="1032.52" y="867.83" transform="matrix(0.8413 -0.5405 0.5405 0.8413 -337.5598 717.2932)" fill="#626065" stroke="#FFFFFF" stroke-width="6" stroke-miterlimit="10" width="40.99" height="131.59"/>
			</g>
		</g>
		<g>
			<g>
				<path fill="#626065" stroke="#FFFFFF" stroke-width="6" stroke-miterlimit="10" d="M884.8,1259.49
					c-10.47,85.1-88.23,145.81-173.32,135.34c-85.1-10.47-145.81-88.23-135.34-173.32c10.47-85.1,88.23-145.81,173.32-135.34
					C834.56,1096.64,895.28,1174.39,884.8,1259.49z M610.17,1225.69c-8.16,66.33,39.16,126.95,105.5,135.11
					c66.33,8.16,126.95-39.16,135.11-105.5c8.16-66.34-39.16-126.95-105.5-135.11C678.94,1112.03,618.33,1159.35,610.17,1225.69z"/>
			</g>
			<g>
				
					<ellipse transform="matrix(0.3462 -0.9382 0.9382 0.3462 -686.1877 1496.4039)" fill="#0071BC" stroke="#FFFFFF" stroke-width="6" stroke-miterlimit="10" cx="730.47" cy="1240.49" rx="87.76" ry="87.77"/>
			</g>
			<g>
				
					<rect x="701.35" y="1012.87" transform="matrix(0.1221 -0.9925 0.9925 0.1221 -358.3137 1654.9102)" fill="#626065" stroke="#FFFFFF" stroke-width="6" stroke-miterlimit="10" width="110.06" height="34.28"/>
			</g>
		</g>
	</g>
	<g>
		<g>
			<path fill="#EDC341" d="M1265.2,645.89c-0.28-5.75-6.74-10.13-12.53-8.81c-6.3,1.43-10.2,6.63-10.02,12.68
				c-0.01,0.02-0.01,0.03-0.01,0.05c-0.03,0.21-0.08,0.42-0.12,0.63c-0.07,0.17-0.13,0.34-0.21,0.51c-0.02,0.04-0.03,0.05-0.04,0.09
				c-0.25,0.33-0.5,0.65-0.78,0.96c-3.96,4.61-3.19,12.3,1.57,15.42c5.09,3.34,11.74,2.2,15.96-2.72
				C1263.66,659.27,1265.53,652.55,1265.2,645.89z"/>
			<path d="M609.58,929.21c-0.92,5.69-3.3,10.66-7.17,15.21c-2.55,3-1.31,6.15,1.12,7.66c-0.54,0.47-1.1,0.91-1.7,1.33
				c-1.76,1.23,0.15,3.63,1.9,2.41c1.23-0.86,2.35-1.82,3.37-2.85c1.43-0.12,2.88-0.79,4.08-2.2c5.13-6.03,8.39-13.13,9.61-20.66
				C621.92,923.02,610.73,922.1,609.58,929.21z"/>
			<path d="M989.69,686.71c0.01-1.73-0.78-3.46-2.06-4.4c-2.59-1.87-5.78-0.89-7.98,1.36c-4.4,4.51-6.67,10.3-6.91,16.18
				c-3.79,3.61,0.13,10.97,6.22,8.7C988.09,705.16,992.86,695.04,989.69,686.71z"/>
			<path d="M941.11,564.23c1.16-5.14-5.99-9.32-9.84-4.07c-4.95,6.76-7.21,14.52-6.38,22.43c0.32,3.02,2.6,4.35,5.03,4.33
				c0.32,0.74,0.82,1.42,1.57,1.98c2.16,1.6,6.3,1.25,7.98-1.36C944.28,580.08,945.03,571.33,941.11,564.23z"/>
			<path d="M782.28,725.56l0.13-7.44c0.05-2.9-3.5-5.03-6.26-4.41c-3.35,0.76-4.96,3.36-5.01,6.47c-0.04,2.48-0.08,4.96-0.13,7.44
				c-0.05,2.9,3.5,5.03,6.26,4.41C780.62,731.27,782.22,728.67,782.28,725.56z"/>
			<g>
				<path d="M786.45,661.45c0.01-0.01,0.01-0.01,0.02-0.01c0,0,0,0,0,0C786.46,661.44,786.46,661.45,786.45,661.45z"/>
				<path d="M790.69,653.65c-1.21-2.94-4.37-3.59-7.34-2.6c-5.92,1.98-10.01,8.88-8.82,14.6c0.58,2.78,3.06,5.13,6.26,4.41
					c2.82-0.64,5.63-3.49,5.01-6.47c-0.03-0.12-0.04-0.26-0.05-0.4c-0.04,0.07-0.21-0.2-0.14-0.46c-0.1,0.12-0.15,0.18,0.03-0.09
					c0.17-0.25,0.27-0.57,0.41-0.86c0.04-0.04,0.09-0.09,0.16-0.15c0.02-0.01,0.02-0.02,0.04-0.03c0.1-0.07,0.17-0.12,0.2-0.15
					c-0.04,0.04-0.11,0.09-0.19,0.15c0.07-0.06,0.13-0.11,0.17-0.15c0.01,0,0.03-0.01,0.04-0.01c0.01-0.01,0.03-0.03,0.03-0.04
					c0.01,0,0,0.01-0.03,0.03c0.33-0.11,0.68-0.29,0.99-0.4C790.42,660.05,791.72,656.14,790.69,653.65z"/>
				<path d="M785.66,662.69c0.05,0.15,0.07,0.33,0.1,0.5C785.78,663.15,785.77,663.01,785.66,662.69z"/>
				<path d="M785.71,662.56c-0.04,0.05-0.07,0.11-0.09,0.17C785.76,662.55,786.01,662.2,785.71,662.56z"/>
			</g>
			<path d="M372.39,873.33c-2.65-0.84-6.44,0.31-7.51,3.3c-0.99,2.76-1.98,5.52-2.96,8.28c-1,2.78-0.19,6.15,2.81,7.1
				c2.65,0.84,6.44-0.31,7.51-3.3c0.99-2.76,1.98-5.52,2.96-8.28C376.2,877.64,375.4,874.28,372.39,873.33z"/>
			<path fill="#F2F2F2" d="M102.06,1238.9c-0.73,15.67,5.12,30.03,22.08,40.47c24.11,14.84,60.18,16.27,88.56,7.89
				c42.06-12.43,80.02-38.52,118.75-58.97c18.5-9.76,38.29-18.66,55.9-30.11c10.21-6.64,9.29-5.77,197.84-100.62
				c278.28-139.98,244.66-123.96,308.86-155.55c60.72-29.88,120.99-60.76,181.66-90.75c43.19-21.35,84.34-47.01,127.71-67.95
				c32.27-15.58,58.06-26.83,84.91-53.83c14.15-14.24,35.57-35.78,41.65-66.9c6.05-31.02-6.42-54.8-24.59-88.2
				c-23.5-43.18-50.78-70.18-76.87-95.6c-32.43-31.59-60.37-52.04-88.71-72.6c-37.26-27.04-65.94-44.32-98.24-63.79
				c-66.49-40.07-119.07-66.23-151.93-82.48c-23.28-11.52-38.94-19.23-61.76-28.92c-12.24-5.2-48.16-20.15-104.19-37.13
				c-94.89-28.75-120.06-24.71-132.6-21.85c-33.34,7.61-52.46,24-56.31,27.4c-6.67,5.88-23.32,21.96-31.92,46.92
				c0,0-5.95,17.27,0.85,84.69l8.8,15.08l-8,39.16c-33.28,64.04-58.25,116.93-75.05,153.73c-13,28.48-17.75,39.98-51.17,115.63
				c-12.36,27.98-35.19,79.65-56.16,126.4c-49.13,109.55-81.42,181.34-126.55,270.75c-23.45,46.47-47.44,92.04-74.78,136.61
				C110.8,1204.64,102.82,1222.49,102.06,1238.9z"/>
			<g>
				<polygon fill="#ECE07E" points="338.99,859 338.99,859.01 338.99,859 				"/>
				<path fill="#ECE07E" d="M1114.03,687.44c-2.47-3.14-5.76-4.87-9.33-5.44c2.68-4.02,3.62-9.09,1.37-14.57
					c-9.04-22.06-18.09-44.12-27.13-66.18c-0.95-2.33-2.26-4.16-3.8-5.56c2.3-4.72,2.58-9.95-0.33-14.74
					c-3.9-6.43-13.2-10.19-20.98-6.01c-5.16,2.77-10.32,5.55-15.48,8.32c-9.44-27.78-42.28-39.05-70.99-43.62
					c-3.56-0.57-7.14,0.4-10.27,2.29c-11.7-6.86-24.05-12.75-36.94-17.55c-2.75-2.81-6.66-4.65-10.51-5.11
					c-3.29-0.39-6.57-0.78-9.86-1.17c-6.4-0.76-11.7,2.2-15.15,6.62c-6.81-8.92-14.36-17.26-23.15-24.63
					c-3.74-3.14-7.76-6.07-11.98-8.74c-0.01-0.07-0.01-0.13-0.02-0.2c-3.17-19.5-29.1-29.66-48.45-30.72
					c-1.67-2.59-4.12-4.62-7.28-5.55c-22.34-6.55-45.34-8.36-69.2-5.4c-6.7,0.83-12.12,6.29-14.2,12.46
					c-6.01-8.64-6.32-21.54-11.53-30.81c-7.35-13.08-20.53-22.6-37.19-20.1c-13.72,2.06-24.98,10.9-33.56,21.5
					c-1.73-4.73-4.62-9-8.37-12.44c-1.25-4.62-4.69-8.48-9.42-10.62c-26.49-11.99-55.82,6.6-70.7,29.81
					c-8.39,13.09-14.49,26.9-18.58,41.15c-2.41,1.22-4.69,2.91-6.7,4.95c-14.76,15.02-21.8,34.82-21.68,54.5
					c-9.98,8.74-14.7,20.08-15.44,32.61c-3.65,7.94-7.07,15.96-10.31,24.03c-0.33,0.18-0.65,0.38-0.95,0.63
					c-3.34,2.78-5.71,6.16-7.15,9.99c-2.23,2.38-4.04,5.06-5.25,8.08c-0.82,2.03-0.48,4.43,0.92,5.91
					c-4.9,9.65-9.42,19.43-13.55,29.39c-0.89,2.16-0.4,4.17,0.81,5.55c-1.38,2.05-2.75,4.11-4.08,6.2
					c-4.79,7.55-5.25,16.78,1.47,22.41c-6.83,12.18-12.94,24.61-18.4,37.29c-0.85,0.35-1.68,0.71-2.53,1.07
					c-1.32-1.81-3.69-2.88-6.56-1.78c-5.34,2.05-9.07,5.76-10.76,11.13c-0.37,1.18-0.38,2.38-0.11,3.47
					c-2.43,1.74-4.3,4.17-5.91,6.68c-5.01,7.79-7.78,16.54-10.84,25.13c-1.83,3.27-3.24,6.8-4.14,10.67
					c-0.12,0.12-0.25,0.22-0.37,0.35c-5.8,6.05-9.93,13.16-12.25,20.68c-3.99,7.29-7.54,14.75-10.3,22.54
					c-8.74,10.53-13.93,23.92-18,37.25c0,0,0.02-0.14,0.02-0.16c-0.04,0.03-0.18,0.68-0.25,0.92c-6.8,6.69-12.75,18.51-15.57,22.91
					c-2.17,3.39-0.53,6.87,2.05,8.28l-5.47,14.68c-1.37,3.67-1.39,7.37-0.45,10.67c-2.19,3.42-4.23,6.93-6.1,10.52
					c-3.73,7.14-6.76,14.54-9.45,22.06c-3.5,5.56-7.11,11.05-10.66,16.46c-9.47,14.47-19.04,29.06-26.8,44.38
					c-0.82,1.15-1.55,2.44-2.16,3.92l-1.49,3.66c-2.09,4.58-4.01,9.22-5.7,13.96c-0.76,2.14-1.17,4.32-1.22,6.45
					c-13.36,15.39-25.08,31.91-34.88,49.49c-0.97,0.41-1.93,0.85-2.88,1.3c-2.13-2.06-5.93-2.54-8.47,0.68
					c-2.42,3.06-4.84,6.12-7.27,9.18c-18.5,14.77-30.21,37.21-30.57,60.71c-4.84,2.59-8.56,7.13-9.41,12.82
					c-0.56,3.72-1.39,6.96-2.61,10c-1.07,0.29-2.12,0.88-3.05,1.88c-8.53,9.17-15.52,20.29-18.02,31.82
					c-1.89,2.65-3.01,5.7-3.25,8.84c-3.4,3.66-5.05,8.49-3.08,12.99c1.56,3.56,4.94,5.66,8.76,6.1c0.05,0.12,0.09,0.25,0.14,0.37
					c3.05,7.91,13.73,11.96,22.02,7.79c1.14-0.57,2.19-1.24,3.18-1.97c1.34,0.02,2.7-0.02,4.09-0.22
					c13.59-1.89,20.97-13.34,25.33-24.93c3.52-9.35,9.46-13.75,19.23-16.87c13.63-4.37,27.76-5.43,41.26-10.64
					c22.77-8.78,42.13-26.32,53.99-47.28c15.77-7.55,33.34-12.48,48.9-18.87c32.04-13.17,65.65-38.51,68.55-74.5
					c6.11-5.86,11.92-12.02,17.4-18.48c1.36-1.61,2.36-3.23,3.04-4.84c17.3-5.14,34.26-11.38,50.81-18.92
					c10.22-1.45,20.38-3.55,30.41-6.22c1.3,1.82,3.66,2.82,6.51,1.52c16.91-7.69,34.25-13.81,52.12-18.26
					c0.13-0.03,0.23-0.09,0.36-0.13c3.59,3.43,8.69,5.35,13.85,3.84c21.95-6.4,42.94-14.9,62.92-26.48c4.4-2.55,7.9-6.27,9.64-10.52
					c1.38-0.26,2.81-0.67,4.29-1.31c14.88-6.4,29.76-12.81,44.64-19.21c13.42-5.78,12.85-20.53,5.11-27.63
					c8.46-5.1,16.78-10.47,25.24-15.58c15.25-9.21,33.01-18.84,50.84-19.44c9.18-0.31,17.91-5.51,19.48-15.2
					c0.19-1.15,0.21-2.33,0.11-3.52c1.35-0.85,2.66-1.74,3.94-2.68c1.65,0.22,3.36,0.25,5.11,0.06
					c18.56-1.95,36.96-7.59,53.82-16.44c8-4.2,12.77-12.99,10.05-21.16c74.85-25.4,146.42-60.71,212.86-105.14
					C1118.08,705.59,1119.12,693.89,1114.03,687.44z"/>
			</g>
			<path fill="#ECE07E" d="M1032.15,511.46c-10.98-13.93-24.49-25.76-40.18-34.55c-7.69-4.31-17.67-3.82-23.95,4.09
				c-1.15,1.45-2.04,3.15-2.67,4.96c-42.59-11.79-84-25.2-115.95-55.41c-16.57-15.66-31.17-33.21-48.74-47.88
				c-17.34-14.48-37.55-26.05-58.98-34.35c-24.39-9.45-50.98-14.61-77.84-15.17c-9.14-0.19-17.97,5.87-19.48,15.2
				c-1.39,8.54,4.92,17.71,14.11,17.9c44.64,0.93,86.58,15.61,119.6,42.8c17.63,14.52,32.24,32.16,48.77,47.8
				c16.75,15.85,35.97,28.18,57.33,37.78c23.83,10.71,49.4,17.73,74.83,24.66c8.2,2.24,17.5-0.66,21.87-8.59
				c8.97,6.25,16.88,13.56,23.73,22.25C1017.46,549.27,1045.01,527.78,1032.15,511.46z"/>
			<path fill="#ECE07E" d="M1132.59,535.1c-5.63-6.5-16.17-8.05-23.76-1.91c-9.48,7.67-16.92,17.08-22.04,27.89
				c-3.84,8.1,0.02,18.64,8.43,21.3c8.69,2.75,18.43-1.22,22.54-9.89c0.23-0.5,2.04-3.8,1.92-3.79c0.86-1.3,1.77-2.57,2.73-3.79
				c0.98-1.24,2.03-2.44,3.12-3.6c-0.07,0.19,2.83-2.45,3.26-2.8C1135.9,552.75,1138.37,541.77,1132.59,535.1z"/>
			<path fill="#ECE07E" d="M718.21,249.53c-19.67-10.8-39.84-20.68-60.71-29.35c-19.6-8.14-33.62,23.09-14.11,31.19
				c18.22,7.57,36.05,15.94,53.23,25.37c7.73,4.24,17.64,3.86,23.95-4.09C725.86,265.98,725.98,253.8,718.21,249.53z"/>
			<path fill="#BC4124" d="M1227.04,559.48c-3.26-5.74-7.73-9.96-13.79-12.85c-0.17-0.08-0.36-0.11-0.53-0.17
				c0.5-2.65,0.08-5.42-1.65-7.85c-84.2-118.06-223.65-180.48-351.4-245.64c-22.81-11.63-44.94-24.37-67.72-36.04
				c-11.39-5.83-22.92-11.43-34.76-16.44c-5-2.12-11.42-6.11-16.94-6.7c-5-0.54-10.16,2.55-15.19,1.43
				c-5.45-1.22-11.26-5.77-16.39-8.01c-12.27-5.37-25.08-9.72-38.21-13.07c-24.92-6.35-51.1-9.17-77.46-6.16
				c-5.59,0.64-8.64,4.23-9.49,8.32c-3.09,1.44-6.19,2.88-9.28,4.32c-2.9,1.35-5.22,3.91-6.41,6.8
				c-7.37,4.31-13.85,10.45-18.69,18.04c-12.73,19.98-9.15,43.62,2.72,61.25c13.02,19.34,35.85,28.94,58.78,33.68
				c24.9,5.15,50.95,5.82,76.82,3.93l12.35,0.28c0.33,0.16,0.7,0.29,1.12,0.39c9.2,2.17,18.4,4.34,27.6,6.52
				c1.49,0.35,2.86,0.12,4.05-0.44c19.29,7.4,37.15,17.74,53.44,30.63c-0.11,1.16,0.23,2.37,1.31,3.48
				c3.3,3.41,6.72,6.69,10.27,9.83c0.16,0.32,0.35,0.63,0.6,0.94c29.65,37.09,70.17,64.65,116.73,79.2c0.23,0.07,0.45,0.1,0.68,0.14
				c13.86,6.97,28.12,13.16,42.81,18.53c1.71,0.63,3.29,0.39,4.59-0.33c49.22,31.12,81.13,84.4,109.9,133.86
				c4.99,8.57,19.92,8.11,21.77-3.89c1.91-12.37,5.47-24.22,10.58-35.71c4.23,0.18,8.54-1.9,10.57-7.16
				c8.37-21.67,35.75-22.63,54.9-23.03c6.21-0.13,10.43-4.29,12.07-8.97c4.39,1.08,8.34,3.27,11.9,6.27
				c3.85,3.24,8.29,2.86,11.83,0.63c0.55,0.63,1.23,1.17,2.04,1.56c3.25,1.55,6.16,4.15,7.92,7.25c1.43,2.52,4.25,4,7.34,2.6
				C1226.41,565.69,1228.49,562.02,1227.04,559.48z M1171.33,526.2c-6.33,0.64-9.42,5.1-9.72,9.82c-9.1,0.64-18.48,1.92-27.32,4.43
				c-0.64-0.44-1.43-0.76-2.39-0.89c-12.32-1.65-24.19,6.58-27.52,18.22c-1.01,1.12-1.98,2.29-2.89,3.53
				c-4.09,0.1-8.32,2.08-10.84,6.63c-4.49,8.1-8.22,16.49-11.22,25.07c-17.64-29.3-37-58.49-60.54-83.11
				c-3.4-12.26-9.26-25.47-24.3-25.96c-1.35-0.04-2.5,0.31-3.45,0.9c-18.82-14.42-40.12-25.81-64.75-32.61
				c-0.17-0.05-0.34-0.07-0.51-0.11c-0.9-0.38-1.89-0.67-3-0.83c-50.84-7.21-81.4-52.31-116.37-82.91
				c-30.45-26.65-68.59-44.03-109.82-50.18c-31.92-7.86-64.67-14.55-95.79-24.45c-11.35-3.61-23.95-9.52-23.55-23.18
				c0.42-14.44,13.35-24.03,26.29-28.48c2.33-0.8,4.09-2.4,5.28-4.36c13.22-1.58,26.36-1.57,39.54,0.07
				c0.99,0.12,1.92,0.12,2.8,0.03c20.49,5.55,40.99,11.1,61.48,16.66c11.32,6.33,22.65,12.67,33.97,19
				c0.27,0.36,0.56,0.72,0.89,1.07c15.54,15.85,34.55,25.9,57.08,30.3c2.91,0.57,5.58-0.3,7.75-1.95
				c34.4,15.94,67.74,33.84,100.97,51.8c4.67,2.53,10.35,2.57,14.56-1.25c2.85,1.47,5.72,2.93,8.57,4.41
				c63.67,32.95,126.58,68.24,180.91,114.18c19.61,16.59,37.83,34.62,54.33,54.12C1171.64,526.18,1171.49,526.18,1171.33,526.2z"/>
			<path fill="#FA9927" d="M1017.34,553.36c-31.52-52.66-97.74-65.81-151.02-90.08c-14.24-6.49-28-13.99-40.24-23.47
				c-12.99-10.06-22.71-22.59-32.49-35.54c-9.03-11.96-18.74-23.36-31.93-31.13c-11.53-6.79-24.47-10.9-37.82-13.69
				c-34.7-7.25-72.11-5.8-104.24-20.79c-4.56-2.13-7.88,5.31-3.36,7.43c1.6,0.75,3.22,1.45,4.85,2.12
				c-0.75,1.82-0.33,3.89,2.06,4.51c32.08,8.33,65.14,16.73,92.75,34.41c12.15,7.78,23.14,17.22,31.88,28.57
				c1.67,2.17,3.16,4.38,4.5,6.61c0.22,1.14,0.49,2.28,0.85,3.43c0.37,1.17,1.18,1.81,2.16,2.06c4.01,7.98,6.76,16.36,10.15,25.15
				c4.39,11.38,13.21,16.32,25.68,16.77c6.77,0.25,13.79-0.64,20.38,0.82c8.09,1.78,12.22,7.92,16.33,14.29
				c7.48,11.61,16.62,18.47,30.49,22.12c15.32,4.04,31.25,6.22,46.61,10.19c37.41,9.68,73.22,23.85,106.56,42.03
				C1015.43,561.3,1019.63,557.19,1017.34,553.36z"/>
			<path fill="#FA9927" d="M1116.79,672.59c-1.24-5.17-4.24-9.21-7.98-12.62c-0.08-0.18-0.16-0.37-0.28-0.55
				c-3.3-5.09-8.65-8.18-14.82-9.15c-2.34-0.37-3.85,1.11-4.32,2.88c-0.04-0.03-0.08-0.05-0.12-0.08c-2.87-1.9-5.66-3.89-8.39-5.95
				c-15.93-19.96-31.85-39.93-47.78-59.89c-0.52-0.66-1.12-1.05-1.75-1.26c-0.05-0.08-0.1-0.17-0.14-0.25
				c-0.58-1.05-1.48-1.65-2.46-1.89c-2.25-1.84-6.22-0.31-6.87,2.34c-1.56-3.92-2.96-7.92-4.2-11.99c-1.26-4.14-8.85-1.84-7.8,2.45
				c3.53,14.52,8.13,28.66,14.11,42.24c3.1,7.04,6.55,13.91,10.32,20.59c2.76,4.89,5.51,10.52,10.59,13.45
				c3.76,2.17,8.93,2.13,12.94,0.22c5.56,3.56,11.46,6.84,17.34,10.14c2.58,1.64,5.2,3.21,7.89,4.69c0.68,0.38,1.43,0.74,2.2,1.11
				c2.14,1.28,4.25,2.59,6.3,3.94c2.89,2.52,5.82,5,8.81,7.41c0.19,0.61,0.32,1.2,0.37,1.78c-0.43,0.94-0.99,1.9-1.71,2.89
				c-4.63,6.39-12.64,9.35-19.64,12.2c-1.46,0.6-2.22,1.73-2.44,2.95c-15.48,5.32-39.78,6.25-45.95,24.48
				c-1.12,3.31,1.61,6.36,5.15,4.92c15.45-6.29,30.99-12.38,46.36-18.89c7.45-3.16,14.68-7.13,19.91-12.9
				c1.73-0.99,3.43-2.02,5.04-3.14C1115.2,689.33,1118.87,681.27,1116.79,672.59z"/>
			<path fill="#EDCB3A" d="M967.85,670.79c-2.84-7.08-11.29-10.56-18.74-8.43c-3.79-2.73-7.58-5.45-11.36-8.18
				c-3.25-2.34-6.5-4.68-9.75-7.02c-1.79-1.29-6.28-3.29-7.24-5.35c-1.52-3.26,1.26-6.77,2.6-10.6c1.9-5.4,2.18-10.1,0.31-15.26
				c-3.05-8.41-14.87-5.97-18.07,1.51c-0.11-0.01-0.2-0.02-0.35-0.02c-1.07,0.01-2.23,0.15-3.31,0.22
				c-2.54,0.17-4.97,0.26-7.48,0.96c-3.74,1.05-7.38,3.19-10.1,6.1c-1.76,0.36-3.52,0.72-5.29,1.08c-1.12,0.23-2.2,0.66-3.2,1.24
				c-2.97-1.72-6.09-3.25-9.69-3.53c-22.81-1.75-22.55,33.77-14.34,45.43c5.34,7.59,14.41,12.3,23.97,13.25
				c5.1,0.51,10.26-0.21,15.25-1.86c4.49-1.48,10.52-5.85,15.19-5.68c3.8,0.14,5.66,4.47,7.56,7.21c2.76,3.99,5.96,7.67,10.1,10.37
				c8.22,5.35,19.58,7.6,29.62,4.05C964.06,692.56,972.01,681.19,967.85,670.79z"/>
			<path fill="#E8C534" d="M605,554.65c-3.72-4.3-11.47-4.65-15.39,0.7c-2.67,3.64-9.23,4.7-11.57,0.58
				c-2.29-4.02,0.7-11.16,1.7-15.46c1.14-4.91,1.92-9.77,2.15-14.74c0.64-13.58-2.15-26.75-8.03-38.38c0.24-1.2,0.47-2.41,0.68-3.61
				c1.17-6.72-4.16-10.19-9.53-9.91c-0.33-0.41-0.65-0.82-1-1.22c-7.72-8.99-23.49,3.26-15.74,12.28c1.88,2.19,3.55,4.48,5.08,6.85
				c-6.22,26-19.1,50.51-37.53,71.24c-9.48,10.66-22.12,18.49-31.09,29.43c-11.03,13.44-6.57,27.23-2.46,41.28
				c4.67,15.97,9.35,31.95,14.02,47.92c1.85,6.32,3.26,12.68,8.99,16.53c5.41,3.63,12.69,3.02,18.76,0.02
				c6.19-3.06,10.92-8.11,15.7-12.93c6-6.05,11.88-12.25,17.12-18.94c9.41-11.99,17.19-26,18.7-40.82
				c0.77-7.58-0.67-15.1,0.22-22.65c1.08-9.18,7.87-10.56,15.44-14.24C603.96,582.41,615.29,566.53,605,554.65z"/>
			<path fill="#E8C534" d="M589.57,874.51c-1.05-4.92-5.18-8.57-10.74-7.56c-1.21,0.22-2.42,0.71-3.53,1.4
				c-3.04-0.93-6.64-0.53-9.13,1.8c-11.59,10.87-13.17,29.8-0.56,39.03c7.38,5.4,18.39,3.59,22.08-6.07
				C591.19,893.97,591.5,883.59,589.57,874.51z"/>
			<path fill="#E8C534" d="M419.2,820.9c5.48-0.02,11.48-4.12,10.96-11.02c-1.02-13.6-10.27-31.43-27.78-23.54
				c-3.46,1.56-6.22,4.04-8.66,6.85c-0.81,0.19-1.64,0.47-2.5,0.9c-26.28,13.09-43.55,47.75-27.52,72.54
				c3.28,5.07,10.57,7.8,16.9,5.16c-1.01,1.25-0.62,2.91-0.93,4.83l-5.37,33.1c-1.94,11.98,14.42,13.89,17.9,3.25
				c2.59,1.37,5.51,1.52,8.37,0.22c5.06-2.29,7.04-7.96,5.33-12.68c-1.99-5.48-3.95-10.96-5.94-16.45c-0.56-1.55-0.66-2.72-2.9-3.69
				l0.38-2.32c1.29-7.98-6.92-11.43-13.01-9.4c3.52-3.56,5.12-8.73,7.27-13.04C398.31,842.35,407.75,830.65,419.2,820.9z"/>
			<path fill="#E8C534" d="M781.1,491.05c-9.1,0.79-18.2,1.59-27.3,2.38c-7.85,0.69-17.47,0.12-24.92,3.65
				c-7.13,3.37-10,9.71-11.88,16.64c-1.92,7.06-7.93,12.3-9.04,19.62c-0.5,3.3-0.04,6.71,1.33,9.63c-1.19,3.68,0.14,7.51,3.06,10.04
				c6.31,5.48,12.62,10.96,18.93,16.44c3.77,3.27,10.55,1.62,13.68-2.33c3.57-4.49,2.43-9.93-1.35-13.21
				c-3.14-2.73-6.28-5.45-9.42-8.18c0.28-0.18,0.56-0.35,0.84-0.53c17.21-11.08,34.21-22.52,51.3-33.78
				c2.25-1.48,3.46-3.52,3.86-5.66C793.82,500.03,790.21,490.26,781.1,491.05z"/>
			<path fill="#FF422E" d="M776.19,460.87c-0.76-6.3-3.71-12.93-5.15-17.97c-2.73-9.59-5.83-19.11-10.48-27.87
				c-3.16-5.96-6.89-11.6-11.22-16.76c-2.62-3.13-9.94-13.37-14.36-13.73c-12.98-9.93-28.49-16.11-43.97-21.82
				c-7.65-2.82-15.35-5.53-22.88-8.59c-3.88-1.58-7.63-3.38-11.46-5.04c-3.42-1.48-6.68-1.36-10.09-2.22
				c-15.79-4.01-31.59-8.02-47.38-12.04c-3.99-1.01-7.62,0.03-10.43,2.11c-3.98-1.6-8.41-1.62-12.77,0.23
				c-2.58,1.1-3.99,4.03-3.48,6.53c-1,0.46-1.87,0.99-2.53,1.62c-12.16,11.62-15.62,30.41-19.07,45.49
				c-1.81,7.89-3.64,15.63-6.05,23.42c-0.86,2.79-1.41,10.61-3.63,12.64c-0.61,0.56-1.45,0.76-2.14,1.2
				c-1.1,0.71-1.71,1.94-2.25,3.09c-2.84,6.01-5.68,12.03-8.52,18.04c-1.12,2.36-0.52,4.35,0.84,5.65
				c-2.91,5.48-5.32,11.2-7.25,17.06c-1.74,0.26-3.39,1.34-4.28,3.49c-8.67,20.96-17.34,41.91-26,62.87
				c-2.5,6.04,7.11,11.59,12.05,11.95c11.68,0.85,18.96-10.96,19.97-20.85c1.74-16.95-0.36-32.65,7.23-49.27
				c4.83-10.58,10.94-20.58,16.02-30.96c4.66-9.52,11.61-18.31,20.75-24.22c11.38-7.35,30.92-11.72,39.77-0.59
				c6.22,7.81,5.65,19.49,5.13,29.24c-0.19,3.65,4.43,6.13,7.13,2.59c9.44-12.4,19.47-25.83,34.17-32.53
				c1.75-0.8,3.56-1.45,5.39-1.97c7.94-1.38,15.9,0.31,21.94,6.1c7.04,6.75,6.91,19.74,8.23,28.87c1.56,10.8,4.95,21.95,15.38,27.01
				c11.52,5.6,24.42,5.23,37.24,1.87c9.84-2.58,27.11-4.37,32.71-14.58C776.36,467.92,776.63,464.45,776.19,460.87z"/>
			<path fill="#FF422E" d="M1068.31,634.25c-10.08-5.32-18.57-13.47-23.78-23.48c-5.06-9.72-7.01-20.77-11.01-30.95
				c-7.37-18.75-22.41-32.77-39.45-43.2c-39.44-24.13-87.46-36.09-135.34-36.62c-6.52-0.07-8.64,8.87-3.64,10.69
				c0.04,1.47,0.64,2.89,1.94,3.85c8.63,6.32,15.39,14.11,20.2,23.62c1.7,3.37,5.28,3.87,8.61,1.82
				c9.63-5.92,20.63-12.74,32.07-11.84c9.98,0.78,14.69,8.27,19.48,15.63c9.7,14.9,22.34,20.86,40.11,24.48
				c8.43,1.72,17.07,3.12,24.74,6.85c9.37,4.55,13.36,11.57,14.43,21.81c1.29,12.25,4.42,26.83,16.91,29.8
				c-1,17.74,19.25,27.26,35.69,16.97C1073.45,641.06,1071.47,635.92,1068.31,634.25z"/>
			<path fill="#FF422E" d="M975.92,757.1c-12.13,0.19-21.54-6.21-32.13-10.4c-8.7-3.44-18.16-5.05-27.86-3.13
				c-18,3.57-33.03,19.87-29.91,38.02c3.46,20.19,27.05,23.06,44.68,17.81c18.16-5.4,38.95-14.55,47.58-32.5
				c0.09-0.18,0.13-0.37,0.2-0.56C981.71,763.21,981.4,757.02,975.92,757.1z M952.44,778.71c2.71-1.91,5.66-4.56,8.74-6.48
				C958.58,774.7,955.61,776.84,952.44,778.71z"/>
			<path fill="#FF422E" d="M863.98,822.68c0.86-1.65,0.92-3.63-0.49-5.42c-10.23-12.94-21.61-24.93-34.11-35.78
				c-8.64-7.49-23.33-23.73-37-15.12c-13.55,8.54-1.91,22.15,5.23,28.91c11.13,10.52,31.96,23.75,24.18,42.61
				c-1.49,3.61,1.32,8.66,5.79,7.34c7.03-2.08,14.07-4.14,21.09-6.23c3.97-1.18,8.55-2.09,11.78-4.96
				C864,830.87,865.18,826.28,863.98,822.68z"/>
			<path fill="#FF422E" d="M674.3,904.88c-10.43-18.23-25.93-34.4-48.2-37.12c-0.92-0.69-1.84-1.37-2.76-2.06
				c-2.09-1.56-5.53-1.19-7.49,0.83c-3.69,1.65-5.91,6.81-1.85,9.46c22.14,14.5,49.39,39.74,31.65,69.71
				c-2.73,4.61,2.99,8.63,7.22,6.89c9.81-4.03,20.42-9.01,25.53-18.87C683.85,923.21,679.38,913.75,674.3,904.88z"/>
			<path fill="#FF422E" d="M541.02,994.26c0.57-6.78,2.92-13.38,0.66-19.95c-1.82-5.28-5.75-9.4-10.53-12.23
				c-13.01-7.71-29.16-4.11-43.84-6.18c-6.11-0.86-8.26,7.09-4.29,10.03c0.67,6.22,0.53,12.46-0.42,18.6
				c-1.57,1.65-3.52,2.96-5.74,3.96c-4.68,2.11-4.59,8.42-0.3,10.19c0.68,0.28,1.34,0.59,2.01,0.87
				c-1.97,5.11-4.54,10.08-7.72,14.83c-2.39,3.58-1.01,8.26,3.49,8.69c16.54,1.56,33.45,0.82,50.11-2.66
				c5.5-1.15,12.08-2.33,15.62-7.32C544.44,1006.92,540.47,1000.75,541.02,994.26z"/>
			<path fill="#FF422E" d="M336.46,917.64c-0.46-1.24-1.5-2.78-2.71-4.48c-1.44-3.5-3.6-6.77-5.89-9.71
				c-0.65-1.94-0.72-3.77,0.32-5.29c4.17-6.11-4.58-12.49-8.77-6.35c-2.16,3.17-3.07,5.97-3.16,8.58c-0.36,0.4-0.68,0.84-0.96,1.34
				c-18.19,32.02-36.37,64.04-54.56,96.06c-15.92,28.03-35.41,56.46-45.78,86.83c-1.81,0.42-3.37,1.76-4.41,3.49
				c-3.31,5.52-6.25,11.18-8.84,17.01c-0.78,1.76-0.64,3.31,0.04,4.53c-0.61,0.86-1.23,1.71-1.84,2.57
				c-2.77,3.86-0.14,9.78,5.01,8.61c25.47-5.77,32.02-32.28,37.13-53.32c1.91-7.87,4.14-15.9,8.91-22.84
				c3.93-5.72,9.25-10.42,13.01-16.26c3.69-5.72,4.66-11.49,6.21-17.82c1.66-6.76,5.13-10.43,10.83-14.48
				c8.14-5.78,17.52-10.61,21.33-20.28c2.35-5.95,1.54-11.96,0.84-17.89c2.75-0.57,5.25-2.8,4.85-6.24
				c-0.82-7.08,11.95-10.1,16.79-13.02c4-0.89,7.65-2.63,10.37-6.78C338.14,927.42,338.18,922.25,336.46,917.64z"/>
			<path fill="#FF422E" d="M449.54,699.1c-11.34-0.45,5.15-24.89,6.1-30.72c1.28-7.87-2.08-14.16-8.76-17.7
				c-2.65-1.41-5.01-0.29-6.36,1.69c-1.26,0.53-2.39,1.51-3.12,3.05c-11.27,23.94-22.53,47.89-33.8,71.83
				c-2.32,4.93,4.1,10.15,8.49,6.12c4.59-4.22,9.19-8.44,13.78-12.66c3.65-3.36,7.41-8.05,12.46-8.21c0.56,0.11,1.13,0.15,1.7,0.1
				c2.95,0.38,5.27,1.46,8.54,0c3.61-1.61,4.77-4.14,5.68-7.54C455.01,702.2,452.36,699.21,449.54,699.1z"/>
			
				<ellipse transform="matrix(0.9115 -0.4112 0.4112 0.9115 -245.3825 352.1003)" fill="#42210B" cx="695.71" cy="746.4" rx="121.8" ry="111.21"/>
			
				<ellipse transform="matrix(0.8066 -0.5911 0.5911 0.8066 -177.5259 575.2946)" fill="#42210B" cx="790.41" cy="558.94" rx="86.72" ry="79.99"/>
			
				<ellipse transform="matrix(0.8066 -0.5911 0.5911 0.8066 -369.4604 433.1566)" fill="#42210B" cx="477.26" cy="781.22" rx="88.17" ry="81.33"/>
			
				<ellipse transform="matrix(0.8066 -0.5911 0.5911 0.8066 -496.3612 426.5968)" fill="#42210B" cx="403.76" cy="971.85" rx="83.48" ry="77"/>
			<path fill="#EEB134" d="M1269.02,681.61c-0.29-0.21-0.61-0.39-0.95-0.53c9.82-37.16-1.23-76.29-29.03-100.69
				c-0.18-1.39-0.91-2.69-2-3.69c-5.46-4.98-11.67-8.93-18.47-12.08c-1.25-0.58-2.44-0.64-3.49-0.34c-6.31-4.15-13.3-7.37-20.9-9.49
				c-2.12-0.59-4.03,0.01-5.47,1.16c-8.94-3.2-18.34-5.47-28.09-6.71c-11.14-1.42-18.12,6.39-19.6,14.97
				c-0.33,0.14-0.66,0.3-0.99,0.45c-1.54-3.57-6.56-5.33-9.26-0.96c-2.26,3.66-4.81,6.85-7.75,9.7c-2.26-1.9-5.95-2.14-8.09,1.01
				c-9.49,13.97-18.81,29.19-19.15,45.88c-0.24,11.67,4.06,23.01,13.15,29.92c0.04,1.81,0.98,3.51,3.19,4.33
				c6.21,2.29,10.51,7.44,11.45,13.98c0.2,1.42,0.85,2.44,1.71,3.14c-0.63,3.24-2.05,6.33-4.21,9.15c-1.99,2.6-1.41,5.27,0.25,6.96
				c-5.51,9.05-13.77,15.97-23.72,20.14c-0.85,0.36-1.53,0.82-2.06,1.36c-38,14.24-75.21,30.74-111.4,49.54
				c-2.52,1.31-4.55,2.92-6.13,4.73c-0.37,0.07-0.73,0.12-1.1,0.22c-23.62,6.33-48.91,14.13-66.14,32.25
				c-10.66,5.48-21.07,11.43-31.22,17.81c-0.73-0.17-1.52-0.22-2.32-0.12c-6.15,0.79-12.12,3.47-16.93,7.58
				c-1.65,1.41-2.24,3.12-2.14,4.72c-5.59,1.4-11.19,2.8-16.78,4.2c-3.77,0.94-5.2,4.42-4.66,7.23
				c-5.92,2.52-11.49,5.93-16.25,10.33c-1.12,1.04-2.14,2.11-3.06,3.22c-10.71,3.74-20.98,10.6-30.31,16.89
				c-4.94,3.32-9.7,6.87-14.34,10.56c-1.76,0.25-3.49,0.83-5.11,1.8c-11.3,6.74-22.04,14.14-32.48,21.93
				c-10.99,3.87-20.88,11.87-30.77,20.01l-4.22,3.48c-1.53-0.48-3.34-0.27-5.09,1.08c-23.52,18.26-48.08,35.14-73.62,50.41
				c-16.81,6.47-32.97,14.84-48.12,24.76c-7.1,1.18-14.04,3.34-20.69,6.42c-0.98,0.46-1.71,1.06-2.26,1.75
				c-1.06,0.09-2.12,0.18-3.19,0.24c-1.94,0.1-3.25,0.97-4.02,2.15c-14.42,1.44-28.7,4.2-42.72,8.31c-0.95-0.52-2.15-0.78-3.62-0.64
				c-24.23,2.44-61.31,14.74-68.97,41.08c-3.59,7.85-6.67,17.04-12.27,22.01c-2.11,1.87-3.66,3.96-4.74,6.16
				c-2.06,1.11-4.04,2.67-5.84,4.77c-8.77,10.21-29.09,8.19-40.92,10.56c-7.88,1.58-15.29,4.2-21.91,8
				c-6.88-1.85-14.28,1.25-19.75,6.83c-9.24,9.43-16.6,20.24-22.54,31.79c-0.61,1.19-1.03,2.44-1.3,3.72
				c-1.31,0.82-2.62,1.64-3.92,2.47c-3.25,2.04-5.36,5.52-6.41,9.21c-14.39,8.63-30.83,13.66-47.24,14.1
				c-3.33,0.09-5.86,1.8-7.41,4.06c-9.63,0.97-18.6,5.09-25.67,11.34c-9.26,6.3-22.2,21.1-15.55,29.66
				c-0.01,0.03-0.02,0.06-0.03,0.09l-0.54,3.3c-0.36,2.21,0.73,4.31,2.62,5.32c1.13,0.6,2.35,0.73,3.54,0.51
				c1.37,1.02,3.25,1.45,5.41,0.67c19.07-6.87,38.13-13.74,57.2-20.6c3.89-1.4,4.33-5.09,2.77-7.68
				c10.92-4.47,21.73-9.25,32.41-14.38c2.5,1.48,5.86,1.77,9.13-0.28c2.02-1.26,3.57-2.77,4.78-4.48
				c8.91-0.63,17.85-4.53,24.68-10.64c4.09-0.25,7.52-1.74,10.22-3.99c1.33-0.2,2.66-0.56,3.97-1.09
				c18.62-7.51,36.23-17.04,53.09-28.1c16.74-3.21,32.91-9.2,47.98-17.87c3.03-1.74,3.71-4.88,2.93-7.33
				c31.03-13.26,61.28-28.51,90.54-45.68c3.65-2.14,6.72-5.03,8.75-8.36c12.93-6.26,26.15-11.86,39.65-16.75
				c4.71-1.7,8.11-5.65,9.87-10.16c6.77-2.69,13.48-5.53,20.1-8.6c13.53-6.27,26.26-13.45,36-23.97
				c17.86-5.77,34.48-14.28,49.65-25.76c0.66-0.5,1.15-1.05,1.52-1.63c11.57-5.67,23.22-11.14,34.97-16.41
				c2.88-1.29,3.8-3.82,3.4-6.09c19.22-9.52,38.4-19.14,57.51-28.89c3.25-1.66,5.68-3.82,7.4-6.25
				c17.62-9.14,35.4-17.95,53.35-26.37c40.69-19.1,82.17-36.27,124.26-51.59c5.12-1.86,8.69-6.36,10.3-11.35
				c19.82-9.27,39.31-19.3,58.43-30.1c1.44-0.81,2.78-1.76,4.01-2.81c34.31-14.07,67.99-29.85,100.92-47.22
				c0.74,0.15,1.59,0.14,2.56-0.12c20.79-5.55,40.14-15.26,56.9-28.81c11.82-4.62,22.52-11.96,30.88-21.36
				c0.86,0.03,1.74-0.12,2.57-0.53c5.37-2.64,10.09-6.44,13.65-11.23C1271.67,686.82,1271.44,683.37,1269.02,681.61z"/>
			<path fill="#FFA227" d="M1177.15,530.92c-23.27-34.55-59.06-60.92-91.94-86.25c-33.77-26.01-69.13-50.13-105.85-72.24
				c-72.47-43.63-150.13-79.64-231.46-106.98c-29.53-9.93-59.53-18.65-89.91-26.27c-2.06-1.9-5.1-2.88-7.91-1.94
				c-14.14-3.45-28.35-6.68-42.64-9.65c-2.61-0.54-4.71,0.14-6.2,1.48c-17.85,0.69-32.87,17.47-32.04,35.73
				c1.11,24.45,24.26,37.38,45.74,42.99c13.1,3.42,26.55,5.66,40.06,7.62c6.11,0.89,13.43,0.7,19.27,2.24
				c4.91,1.3,9.05,5.38,14.04,6.13c2.89,0.44,5.85-0.9,8.74-1.76c9.61-2.87,26.02,3.85,34.98,6.29
				c13.23,3.61,26.05,8.41,37.79,15.07c37.63,21.34,63.55,56.54,95,84.86c15.6,14.05,32.91,26.58,52.8,34.68
				c21.73,8.85,46.03,11.04,67.82,19.7c27.29,10.85,37.51,34.25,48.15,59.4c9.59,22.65,22.05,45.45,46.4,55.04
				c12.1,4.77,10.27-13.43,14.21-18.77c2.26-3.07,5.15-5.74,6.96-9.06c2.03-3.73,2.52-7.97,4.08-11.89
				c7.12-17.89,33.04-15.2,47.21-15.05C1158.23,542.37,1187.58,546.4,1177.15,530.92z"/>
			<g>
				<path fill="#EDE6C8" d="M381.58,953.96c-0.94,1.23-2.38,0.56-6.21,1.63c-2.61,0.73-8.21,2.29-9.64,6.14
					c-1.08,2.9,0.44,6.43,2.99,8.22c4.32,3.04,10-0.06,10.3-0.23c1.77-1,3.83-2.83,6.33-9.07c1.93-4.81,3.15-9.84,4.39-20.4
					c1.18-10.04,0.83-12,3-15.19c3.58-5.25,9.45-7.14,10.96-7.63c6.99-2.26,12.8-0.32,18.13,1.46c6.03,2.01,11.76,3.93,15.17,9.74
					c0.2,0.35,4.16,7.35,1.8,15.58c-1.22,4.25-2.79,4.15-7.02,13.27c-2.36,5.08-3.4,8.41-3.67,9.28c-0.81,2.65-1.29,5.25-2.24,10.46
					c-0.81,4.42-0.78,5.09-0.4,5.82c1.79,3.5,9.36,4.21,11.65,1.47c1.26-1.51,0.7-3.82-0.32-8.01c-1.31-5.35-2.81-6.22-2.37-8.71
					c0.6-3.41,4.21-6.24,7.14-7.41c8.14-3.24,16.73,4.11,18.52,5.75c9.03,8.26,8.37,20.64,8.24,22.48
					c-1.15,16.64-15.64,26.7-18.1,28.35c-4.19,2.8-7.57,3.92-13.37,5.84c-6.51,2.16-18.92,6.15-34.87,5.18
					c-17.18-1.05-28.95-7.27-35.52-10.84c-9.59-5.21-15.68-10.81-18.84-13.76c-5.66-5.28-9.11-8.5-11.73-14.25
					c-1.27-2.78-4.68-10.57-2.54-20.96c0.46-2.24,2.74-12.24,11.94-20.33c2.59-2.28,8.18-7.19,16.47-8.25
					c2.05-0.26,9.57-1.23,15.12,3.35C380.7,946.09,383.35,951.65,381.58,953.96z"/>
				<path fill="#E0CD87" d="M399.92,1031.03c-17.34-1.4-29.39-7.95-35.19-11.09c-10.11-5.49-16.41-11.36-19.43-14.18
					c-5.74-5.35-9.52-8.88-12.38-15.15c-3.4-7.45-4.32-15.13-2.74-22.81c0.81-3.94,3.7-13.99,13.05-22.22
					c2.69-2.37,9-7.91,18.35-9.11c1.04-0.13,3.46-0.44,6.39-0.21c4.41,0.36,8.15,1.77,11.11,4.21c2.66,2.19,5.26,5.8,6.05,9.3
					c0.48-2.57,0.93-5.68,1.39-9.62c0.27-2.26,0.45-4.11,0.61-5.65c0.56-5.55,0.79-7.85,2.96-11.03c1.95-2.86,5.75-6.74,12.82-9.02
					c3.12-1.01,6.24-1.37,9.53-1.11c3.95,0.32,7.51,1.51,10.66,2.56c6.3,2.1,12.81,4.28,16.76,11.01c0.2,0.34,4.81,8.41,2.07,17.94
					c-0.73,2.55-1.61,3.89-2.72,5.59c-1.02,1.56-2.41,3.7-4.48,8.16c-1.22,2.63-2.09,4.8-2.68,6.41c1.65-3.5,5.22-6.22,8.51-7.53
					c2.17-0.86,4.49-1.2,6.91-1.01c6.9,0.56,12.75,5.28,14.94,7.29c9.5,8.69,9.42,21.21,9.16,24.84
					c-1.2,17.34-15.34,28.06-19.65,30.94c-4.6,3.07-8.22,4.27-14.23,6.26c-6.24,2.07-19.23,6.38-36.15,5.34
					C400.99,1031.11,400.45,1031.07,399.92,1031.03z M366.95,942.56c-2.25-0.18-4.12,0.06-5.02,0.18
					c-7.22,0.93-12.19,5.29-14.58,7.39c-7.76,6.83-10.16,15.17-10.83,18.44c-1.97,9.63,1.28,16.76,2.35,19.11
					c2.39,5.24,5.48,8.12,11.09,13.35c2.85,2.66,8.79,8.19,18.24,13.33c6.02,3.27,17.35,9.48,34.23,10.48
					c15.63,0.95,27.77-3.07,33.6-5.01c5.63-1.86,8.73-2.89,12.51-5.42c3.63-2.43,15.56-11.45,16.56-25.75
					c0.15-2.11,0.49-12.99-7.32-20.13c-2.8-2.56-7.26-5.42-11.34-5.75c-1.4-0.11-2.66,0.06-3.85,0.54c-2.18,0.87-4.64,2.9-4.97,4.79
					c-0.08,0.46-0.02,0.69,0.54,2.07c0.49,1.19,1.16,2.83,1.79,5.38c1.18,4.84,1.96,8.04-0.39,10.85c-1.77,2.11-4.98,3.2-8.61,2.91
					c-3.93-0.32-7.07-2.07-8.41-4.68c-0.89-1.74-0.66-3.34,0.14-7.72c0.97-5.33,1.46-8,2.33-10.83c0.85-2.77,2.21-6.21,3.83-9.71
					c2.27-4.9,3.82-7.28,4.96-9.02c0.98-1.5,1.42-2.18,1.88-3.77c2.02-7-1.49-13.16-1.52-13.22c-2.86-4.88-7.83-6.53-13.58-8.45
					c-2.95-0.99-6-2-9.17-2.26c-2.4-0.19-4.66,0.07-6.91,0.79c-4.12,1.33-7.19,3.43-9.11,6.25c-1.16,1.7-1.29,2.73-1.82,7.95
					c-0.16,1.57-0.35,3.45-0.62,5.75c-1.19,10.17-2.4,15.72-4.6,21.23c-2.34,5.85-4.63,8.99-7.88,10.83
					c-0.42,0.24-4.26,2.33-8.58,1.98c-1.94-0.16-3.7-0.77-5.21-1.83c-3.84-2.7-5.52-7.63-4-11.71c2.06-5.53,9.03-7.47,12.01-8.3
					c1.81-0.51,3.2-0.68,4.15-0.79c-0.28-1.44-1.65-4.26-4.17-6.34C372.68,943.77,370.08,942.81,366.95,942.56z M428.47,981.57
					c0.42,0.61,1.74,1.29,3.52,1.43c1.36,0.11,2.28-0.15,2.62-0.34c0.11-0.82-0.46-3.14-0.96-5.2c-0.52-2.13-1.07-3.47-1.52-4.55
					c-0.66-1.61-1.29-3.14-0.89-5.41c0.02-0.11,0.04-0.22,0.07-0.33c-0.03,0.1-0.06,0.2-0.09,0.28c-0.76,2.46-1.22,5.01-2.15,10.09
					C428.92,978.37,428.49,980.78,428.47,981.57z M383.54,956.38c-1.37,1.31-3.03,1.5-4.29,1.65c-0.86,0.1-1.84,0.21-3.22,0.6
					c-1.77,0.49-6.46,1.8-7.27,3.98c-0.53,1.41,0.4,3.63,1.97,4.73c0.63,0.45,1.35,0.69,2.18,0.76c2.31,0.19,4.62-1.08,4.64-1.09
					c0.71-0.4,2.39-1.35,4.78-7.31C382.77,958.65,383.16,957.57,383.54,956.38z"/>
			</g>
			<g>
				<path fill="#EDE6C8" d="M778.99,529.08c-1.36,0.76-2.33-0.46-6.13-1.05c-2.59-0.4-8.16-1.26-11.09,1.75
					c-2.21,2.27-2.43,6.22-0.98,8.96c2.44,4.65,8.75,4.1,9.09,4.07c1.98-0.2,4.58-1.06,9.49-5.87c3.78-3.71,7.05-7.92,12.74-17.31
					c5.41-8.93,5.97-10.91,9.26-13c5.42-3.43,11.36-2.77,12.9-2.6c7.09,0.79,11.31,5.03,15.18,8.91c4.38,4.39,8.55,8.58,8.98,15.44
					c0.03,0.41,0.42,8.63-5.24,15.36c-2.92,3.47-4.24,2.73-11.92,9.53c-4.28,3.79-6.64,6.47-7.25,7.18
					c-1.86,2.14-3.42,4.39-6.52,8.88c-2.63,3.81-2.9,4.45-2.89,5.29c0.03,4.03,6.33,7.84,9.52,6.22c1.76-0.89,2.28-3.29,3.22-7.65
					c1.2-5.56,0.26-7,1.73-9.15c2.01-2.94,6.4-4.1,9.47-3.98c8.51,0.35,12.8,10.82,13.65,13.09c4.27,11.5-1.71,22.84-2.63,24.52
					c-8.27,15.13-25.3,18.54-28.17,19.06c-4.88,0.88-8.32,0.52-14.22-0.08c-6.63-0.68-19.2-2.11-32.69-9.65
					c-14.53-8.13-22.08-18.87-26.25-24.94c-6.09-8.88-8.96-16.66-10.43-20.74c-2.63-7.3-4.24-11.76-4.02-18.25
					c0.11-3.13,0.53-11.85,6.93-20.72c1.38-1.91,7.74-10.34,19.29-14.1c3.26-1.06,10.27-3.34,17.97-0.89
					c1.9,0.61,8.89,2.83,11.73,9.43C781.66,521.32,781.54,527.65,778.99,529.08z"/>
				<path fill="#E0CD87" d="M761.34,608.99c-14.52-8.52-22.18-19.68-25.86-25.04c-6.42-9.36-9.35-17.48-10.76-21.39
					c-2.67-7.4-4.43-12.29-4.19-19.36c0.29-8.4,2.84-15.99,7.57-22.54c2.42-3.36,9.34-11.58,21.09-15.41
					c3.38-1.1,11.31-3.68,19.99-0.91c0.96,0.31,3.21,1.02,5.67,2.46c3.69,2.17,6.33,5.05,7.85,8.57c1.36,3.16,2.05,7.63,1.22,11.24
					c1.54-2.21,3.29-4.94,5.42-8.45c1.22-2.01,2.19-3.67,3-5.05c2.91-4.98,4.12-7.03,7.4-9.11c2.95-1.87,7.96-3.93,15.12-3.13
					c3.17,0.35,6.04,1.31,8.8,2.93c3.31,1.94,5.9,4.54,8.18,6.84c4.58,4.59,9.31,9.34,9.81,17.3c0.02,0.41,0.53,9.89-6.03,17.68
					c-1.75,2.09-3.1,2.98-4.81,4.12c-1.57,1.04-3.72,2.47-7.47,5.79c-2.22,1.96-3.92,3.63-5.14,4.9c2.97-2.6,7.27-3.66,10.71-3.52
					c2.27,0.09,4.45,0.74,6.47,1.93c5.78,3.39,8.81,10.26,9.85,13.05c4.5,12.11-1.05,23.81-2.85,27.11
					c-8.62,15.76-25.64,19.94-30.66,20.85c-5.35,0.97-9.04,0.58-15.15-0.05c-6.35-0.65-19.56-2.02-33.87-10.02
					C762.24,609.51,761.78,609.25,761.34,608.99z M771.21,512.29c-1.88-1.1-3.62-1.66-4.45-1.92c-6.71-2.14-12.95-0.11-15.95,0.87
					c-9.75,3.17-15.49,10-17.5,12.79c-5.93,8.21-6.2,16.25-6.3,18.9c-0.2,5.91,1.23,9.9,3.84,17.13c1.33,3.68,4.09,11.34,10.1,20.1
					c3.83,5.57,11,16.11,25.29,24.07c13.22,7.39,25.57,8.67,31.5,9.28c5.72,0.59,8.88,0.91,13.29,0.12
					c4.23-0.76,18.58-4.26,25.69-17.27c1.05-1.92,6.1-11.98,2.41-21.92c-1.33-3.57-3.96-8.1-7.38-10.11
					c-1.17-0.69-2.35-1.05-3.59-1.1c-2.28-0.09-5.31,0.79-6.43,2.43c-0.27,0.4-0.32,0.64-0.43,2.17c-0.09,1.32-0.22,3.13-0.79,5.79
					c-1.08,5.03-1.8,8.35-5.07,10.01c-2.46,1.25-5.74,0.93-8.78-0.85c-3.29-1.93-5.27-4.88-5.29-7.89c-0.02-2,0.88-3.41,3.49-7.19
					c3.17-4.59,4.77-6.9,6.76-9.19c1.95-2.24,4.64-4.91,7.58-7.52c4.12-3.65,6.52-5.24,8.26-6.4c1.51-1,2.19-1.46,3.29-2.75
					c4.81-5.73,4.45-12.97,4.44-13.04c-0.37-5.76-3.98-9.39-8.15-13.58c-2.14-2.15-4.36-4.37-7.02-5.93
					c-2.01-1.18-4.09-1.87-6.37-2.13c-4.18-0.47-7.77,0.23-10.67,2.07c-1.75,1.11-2.32,2.02-5.06,6.7
					c-0.82,1.41-1.81,3.09-3.05,5.14c-5.48,9.04-8.95,13.75-13.29,18c-4.6,4.51-7.96,6.5-11.6,6.88c-0.47,0.05-4.73,0.41-8.35-1.71
					c-1.63-0.96-2.89-2.26-3.74-3.89c-2.17-4.13-1.49-9.45,1.62-12.65c4.21-4.33,11.15-3.25,14.11-2.79
					c1.81,0.28,3.09,0.69,3.97,0.98c0.39-1.47,0.42-4.68-0.87-7.68C775.67,515.82,773.83,513.83,771.21,512.29z M807.84,574.47
					c0.1,0.75,0.95,1.93,2.45,2.81c1.14,0.67,2.06,0.81,2.44,0.77c0.45-0.73,0.97-3.14,1.43-5.28c0.48-2.22,0.58-3.71,0.66-4.9
					c0.12-1.79,0.24-3.48,1.59-5.44c0.07-0.1,0.13-0.19,0.2-0.29c-0.07,0.08-0.14,0.16-0.2,0.23c-1.74,2-3.25,4.2-6.28,8.58
					C809.64,571.66,808.2,573.75,807.84,574.47z M779.64,532.16c-1.77,0.66-3.3,0.15-4.46-0.23c-0.8-0.27-1.7-0.57-3.07-0.78
					c-1.76-0.27-6.42-1-8.08,0.71c-1.08,1.11-1.24,3.57-0.34,5.26c0.36,0.68,0.87,1.21,1.57,1.62c1.94,1.14,4.5,0.91,4.53,0.91
					c0.8-0.08,2.68-0.27,7.36-4.87C777.98,533.97,778.8,533.12,779.64,532.16z"/>
			</g>
			<g>
				<path fill="#D1BA84" d="M699.37,705.32c-2.24,0.85-2.84-1.09-7.57-2.63c-3.23-1.05-10.16-3.3-15.79,0.51
					c-4.23,2.87-6.77,8.51-6.41,12.72c0.61,7.13,9.34,7.49,9.81,7.5c2.76,0.07,6.71-0.7,15.99-6.74
					c7.15-4.66,13.9-10.13,26.84-22.63c12.3-11.88,14.17-14.64,19.74-17.05c9.18-3.96,16.73-1.93,18.68-1.41
					c9,2.42,12.22,9.29,15.17,15.59c3.34,7.12,6.52,13.9,3.19,23.87c-0.2,0.59-4.35,12.5-15.72,21.17
					c-5.87,4.48-7.22,3.17-21.32,11.57c-7.86,4.68-12.54,8.12-13.76,9.03c-3.71,2.75-7.06,5.71-13.75,11.61
					c-5.68,5.01-6.4,5.88-6.87,7.1c-2.25,5.82,3.98,12.44,9.15,10.69c2.86-0.97,4.91-4.32,8.64-10.43
					c4.76-7.79,4.34-10.04,7.52-12.87c4.36-3.88,10.87-4.75,14.89-4.01c11.15,2.04,10.91,17.9,10.74,21.33
					c-0.85,17.34-15.28,32.58-17.46,34.84c-19.64,20.29-44.3,22.12-48.42,22.34c-7,0.38-11.39-0.75-18.91-2.7
					c-8.45-2.18-24.4-6.51-38.09-19.83c-14.75-14.35-18.71-31.18-20.81-40.69c-3.07-13.89-2.46-25.62-2.1-31.76
					c0.65-11,1.04-17.71,5.03-27.01c1.93-4.49,7.46-16.98,21.04-28.59c2.93-2.5,16.2-13.49,33.75-16.81
					c4.95-0.94,15.6-2.95,24.47,1.97c2.19,1.22,10.24,5.69,10.28,15.71C707.35,694.64,703.6,703.73,699.37,705.32z"/>
				<path fill="#E0CD87" d="M630.35,817.23c-14.51-14.9-18.37-32.37-20.22-40.76c-3.24-14.64-2.52-26.88-2.17-32.76
					c0.65-11.14,1.09-18.51,5.44-28.65c5.17-12.05,12.88-22.51,22.93-31.09c5.15-4.4,19.04-14.99,36.89-18.37
					c5.14-0.97,17.17-3.25,27.18,2.31c1.11,0.62,3.7,2.06,6.16,4.58c3.69,3.79,5.57,8.42,5.59,13.76c0.02,4.8-1.61,11.36-4.77,16.4
					c3.31-2.9,7.2-6.51,12.03-11.18c2.77-2.68,5.01-4.89,6.88-6.73c6.72-6.64,9.5-9.39,15.05-11.78c4.99-2.16,12.85-4.21,21.94-1.77
					c4.02,1.08,7.31,2.98,10.06,5.81c3.3,3.39,5.28,7.61,7.02,11.33c3.49,7.44,7.09,15.14,3.24,26.7
					c-0.2,0.59-4.93,14.34-18.11,24.38c-3.53,2.69-5.84,3.74-8.76,5.06c-2.69,1.22-6.37,2.89-13.26,6.99
					c-4.07,2.43-7.29,4.52-9.64,6.13c5.44-3.2,11.78-3.96,16.29-3.13c2.97,0.55,5.5,1.88,7.53,3.95c5.77,5.93,5.92,16.37,5.71,20.58
					c-0.9,18.25-14.95,34.11-19.24,38.53c-20.47,21.14-45.55,24.07-52.74,24.47c-7.68,0.42-12.39-0.8-20.18-2.81
					c-8.1-2.09-24.94-6.46-39.46-20.58C631.26,818.15,630.8,817.69,630.35,817.23z M698.56,679.74c-1.88-1.93-3.88-3.04-4.84-3.58
					c-7.73-4.29-17.21-2.5-21.76-1.64c-14.81,2.8-26.35,11.6-30.62,15.25c-12.58,10.75-17.53,22.29-19.15,26.08
					c-3.64,8.48-3.99,14.48-4.63,25.38c-0.33,5.54-1,17.08,2.03,30.78c1.93,8.72,5.49,25.2,20.02,39.25
					c13.42,13.05,29.16,17.12,36.72,19.08c7.3,1.89,11.32,2.93,17.65,2.58c6.07-0.33,27.2-2.78,44.08-20.21
					c2.49-2.57,14.95-16.15,15.69-31.14c0.26-5.39-0.67-12.39-4.09-15.9c-1.17-1.2-2.53-1.93-4.16-2.23
					c-2.99-0.55-7.53,0.17-9.96,2.33c-0.59,0.52-0.79,0.87-1.8,3.04c-0.88,1.89-2.08,4.47-4.35,8.2
					c-4.31,7.05-7.15,11.71-12.46,13.5c-4,1.35-8.19,0.29-11.22-2.82c-3.29-3.38-4.25-7.98-2.57-12.32
					c1.11-2.89,3.12-4.75,8.75-9.72c6.85-6.04,10.28-9.07,14.25-12.02c3.87-2.88,8.98-6.23,14.39-9.45
					c7.58-4.51,11.67-6.37,14.66-7.72c2.58-1.17,3.76-1.7,5.95-3.37c9.68-7.38,13.31-17.87,13.35-17.98
					c2.79-8.37,0.04-14.24-3.15-21.03c-1.63-3.49-3.32-7.09-5.98-9.82c-2.01-2.06-4.39-3.44-7.28-4.22
					c-5.31-1.43-10.49-1.08-15.41,1.05c-2.97,1.28-4.25,2.5-10.56,8.73c-1.9,1.88-4.18,4.13-6.99,6.85
					c-12.45,12.03-19.77,18.18-27.97,23.52c-8.7,5.67-14.32,7.93-19.39,7.8c-0.66-0.02-6.54-0.26-10.16-3.98
					c-1.63-1.67-2.56-3.78-2.78-6.28c-0.55-6.34,3.39-13.88,9.37-17.93c8.08-5.47,16.71-2.66,20.4-1.46
					c2.25,0.73,3.73,1.56,4.73,2.14c1.35-2.04,3.23-6.67,3.21-11.23C702.5,685.62,701.17,682.43,698.56,679.74z M712.01,775.95
					c-0.29,1.1,0.17,2.96,1.66,4.49c1.14,1.17,2.29,1.53,2.81,1.55c1.02-0.97,3.08-4.34,4.92-7.35c1.9-3.11,2.88-5.23,3.68-6.94
					c1.19-2.55,2.3-4.97,5.22-7.55c0.14-0.13,0.29-0.25,0.43-0.37c-0.14,0.1-0.27,0.2-0.4,0.29c-3.45,2.56-6.73,5.45-13.26,11.21
					C716.01,772.23,712.9,774.96,712.01,775.95z M698.5,709.88c-2.74,0.63-4.49-0.38-5.82-1.14c-0.91-0.53-1.95-1.12-3.65-1.67
					c-2.19-0.71-7.99-2.6-11.18-0.44c-2.06,1.4-3.68,4.91-3.45,7.52c0.09,1.05,0.47,1.9,1.17,2.62c1.94,1.99,5.49,2.13,5.52,2.13
					c1.11,0.03,3.72,0.09,12.59-5.68C695.25,712.19,696.82,711.11,698.5,709.88z"/>
			</g>
			<g>
				<path fill="#EDE6C8" d="M464.44,749.66c-1.36,0.76-2.33-0.46-6.13-1.05c-2.59-0.4-8.16-1.27-11.09,1.75
					c-2.21,2.27-2.43,6.22-0.98,8.96c2.44,4.65,8.75,4.1,9.09,4.07c1.98-0.2,4.58-1.06,9.49-5.87c3.78-3.71,7.05-7.92,12.74-17.31
					c5.41-8.93,5.97-10.91,9.25-13c5.42-3.43,11.36-2.77,12.9-2.6c7.09,0.79,11.31,5.03,15.18,8.91c4.38,4.39,8.55,8.58,8.98,15.44
					c0.03,0.41,0.42,8.63-5.24,15.36c-2.92,3.47-4.24,2.74-11.92,9.53c-4.28,3.79-6.64,6.47-7.25,7.18
					c-1.87,2.14-3.42,4.39-6.52,8.88c-2.63,3.81-2.9,4.45-2.89,5.29c0.03,4.03,6.33,7.84,9.52,6.22c1.76-0.89,2.28-3.29,3.22-7.65
					c1.2-5.56,0.26-7,1.73-9.15c2.01-2.95,6.4-4.1,9.47-3.98c8.51,0.35,12.8,10.82,13.65,13.09c4.27,11.5-1.71,22.84-2.63,24.52
					c-8.27,15.13-25.3,18.54-28.17,19.06c-4.88,0.88-8.32,0.52-14.22-0.08c-6.63-0.68-19.2-2.11-32.69-9.65
					c-14.53-8.13-22.08-18.87-26.25-24.94c-6.09-8.88-8.96-16.66-10.43-20.74c-2.63-7.3-4.24-11.76-4.02-18.25
					c0.11-3.13,0.53-11.85,6.93-20.72c1.38-1.91,7.74-10.34,19.29-14.1c3.26-1.06,10.27-3.34,17.97-0.89
					c1.9,0.61,8.89,2.83,11.73,9.43C467.12,741.91,467,748.23,464.44,749.66z"/>
				<path fill="#E0CD87" d="M446.79,829.57c-14.52-8.52-22.18-19.68-25.86-25.04c-6.42-9.36-9.35-17.48-10.76-21.39
					c-2.67-7.4-4.43-12.29-4.19-19.36c0.29-8.4,2.84-15.99,7.57-22.54c2.42-3.36,9.34-11.58,21.09-15.41
					c3.38-1.1,11.31-3.68,19.99-0.91c0.96,0.31,3.21,1.02,5.67,2.46c3.69,2.17,6.34,5.05,7.85,8.57c1.36,3.16,2.05,7.63,1.22,11.24
					c1.54-2.21,3.29-4.94,5.42-8.45c1.22-2.01,2.19-3.67,3-5.05c2.91-4.98,4.12-7.03,7.4-9.11c2.95-1.87,7.96-3.93,15.12-3.13
					c3.17,0.35,6.04,1.31,8.8,2.93c3.3,1.94,5.9,4.54,8.18,6.83c4.58,4.59,9.31,9.34,9.81,17.3c0.02,0.41,0.52,9.89-6.03,17.68
					c-1.75,2.09-3.1,2.98-4.81,4.12c-1.57,1.04-3.72,2.47-7.47,5.79c-2.22,1.96-3.92,3.63-5.14,4.9c2.97-2.6,7.27-3.66,10.71-3.52
					c2.27,0.09,4.44,0.74,6.47,1.93c5.78,3.39,8.81,10.26,9.85,13.05c4.5,12.11-1.05,23.81-2.85,27.11
					c-8.62,15.76-25.64,19.94-30.66,20.85c-5.35,0.97-9.04,0.58-15.15-0.05c-6.35-0.65-19.56-2.02-33.87-10.02
					C447.7,830.1,447.24,829.84,446.79,829.57z M456.66,732.88c-1.88-1.11-3.62-1.66-4.45-1.92c-6.71-2.14-12.95-0.11-15.95,0.87
					c-9.75,3.17-15.49,10-17.5,12.79c-5.93,8.21-6.2,16.25-6.3,18.9c-0.2,5.91,1.23,9.9,3.84,17.13c1.33,3.68,4.09,11.34,10.1,20.1
					c3.83,5.57,11,16.11,25.29,24.07c13.22,7.39,25.57,8.67,31.5,9.28c5.72,0.59,8.88,0.91,13.29,0.12
					c4.23-0.76,18.58-4.26,25.69-17.27c1.05-1.92,6.1-11.98,2.41-21.92c-1.33-3.57-3.96-8.1-7.38-10.11
					c-1.17-0.69-2.34-1.05-3.59-1.1c-2.28-0.09-5.31,0.79-6.43,2.43c-0.27,0.4-0.32,0.64-0.43,2.17c-0.09,1.32-0.22,3.13-0.79,5.79
					c-1.08,5.03-1.8,8.35-5.07,10.01c-2.46,1.25-5.75,0.93-8.78-0.85c-3.29-1.93-5.27-4.88-5.29-7.89c-0.02-2,0.88-3.41,3.49-7.19
					c3.18-4.59,4.77-6.9,6.76-9.19c1.95-2.24,4.64-4.91,7.58-7.52c4.12-3.65,6.52-5.24,8.26-6.4c1.51-1,2.19-1.46,3.29-2.75
					c4.81-5.73,4.45-12.97,4.44-13.04c-0.37-5.76-3.98-9.38-8.15-13.58c-2.14-2.15-4.36-4.37-7.02-5.93
					c-2.01-1.18-4.09-1.87-6.37-2.13c-4.18-0.47-7.77,0.23-10.67,2.07c-1.75,1.11-2.32,2.02-5.06,6.7
					c-0.82,1.41-1.81,3.09-3.05,5.14c-5.48,9.04-8.95,13.75-13.29,18c-4.6,4.51-7.96,6.5-11.61,6.88c-0.47,0.05-4.73,0.41-8.35-1.71
					c-1.63-0.96-2.89-2.26-3.74-3.89c-2.17-4.13-1.49-9.45,1.62-12.65c4.21-4.33,11.15-3.25,14.11-2.79
					c1.8,0.28,3.09,0.69,3.97,0.98c0.39-1.47,0.42-4.68-0.87-7.68C461.13,736.4,459.28,734.41,456.66,732.88z M493.3,795.06
					c0.1,0.75,0.95,1.93,2.45,2.81c1.14,0.67,2.06,0.81,2.44,0.77c0.45-0.73,0.97-3.14,1.43-5.28c0.48-2.22,0.58-3.71,0.66-4.9
					c0.13-1.79,0.24-3.48,1.59-5.44c0.07-0.1,0.13-0.19,0.2-0.28c-0.07,0.08-0.14,0.16-0.2,0.23c-1.74,2-3.25,4.2-6.28,8.58
					C495.1,792.25,493.66,794.33,493.3,795.06z M465.1,752.74c-1.77,0.66-3.3,0.15-4.46-0.23c-0.8-0.26-1.7-0.57-3.07-0.78
					c-1.76-0.27-6.42-1-8.08,0.71c-1.08,1.11-1.24,3.57-0.34,5.26c0.36,0.68,0.87,1.21,1.57,1.62c1.94,1.14,4.5,0.91,4.53,0.91
					c0.8-0.08,2.68-0.27,7.36-4.87C463.44,754.55,464.25,753.7,465.1,752.74z"/>
			</g>
			<path fill="#004900" d="M890.46,630.83c-24.69-2.32-50.94,12.13-53.42,34.78c-0.08,0.71-0.06,1.37,0.03,2
				c-1.25,1.53-1.88,3.5-1.45,5.86c3.56,19.59,22.64,35.66,46.31,36.07c24.01,0.41,47.26-14.84,52.82-35.31
				C941.37,649.83,915.82,633.21,890.46,630.83z M914.69,674.66c-4.95,10.96-18.93,18.87-32.32,18.16
				c-14-0.74-25.22-10.41-27.47-22.04c0.7-1,1.18-2.2,1.34-3.63C859.77,634.95,927.68,645.91,914.69,674.66z"/>
			<path fill="#004900" d="M640.82,449.64c-24.68-2.33-50.96,12.27-53.48,35.12c-0.08,0.72-0.06,1.39,0.03,2.02
				c-1.25,1.54-1.89,3.54-1.46,5.92c3.53,19.76,22.59,35.96,46.26,36.35c24.01,0.4,47.29-15.01,52.87-35.66
				C691.71,468.78,666.18,452.03,640.82,449.64z M664.99,493.85c-4.96,11.06-18.96,19.05-32.35,18.34
				c-14-0.74-25.21-10.49-27.44-22.22c0.7-1.01,1.18-2.22,1.34-3.66C610.12,453.82,678.02,464.83,664.99,493.85z"/>
			<path fill="#1B1306" d="M559.37,851.23c-24.68-2.34-51.06,12.85-53.7,36.53c-0.08,0.74-0.07,1.44,0.01,2.09
				c-1.26,1.6-1.91,3.67-1.5,6.13c3.42,20.45,22.39,37.17,46.07,37.51c24.02,0.34,47.39-15.68,53.11-37.08
				C610.17,870.9,584.73,853.63,559.37,851.23z M583.29,896.94c-5.03,11.46-19.08,19.78-32.47,19.09
				c-14-0.73-25.16-10.79-27.33-22.93c0.71-1.05,1.2-2.31,1.36-3.8C528.63,855.65,596.5,866.86,583.29,896.94z"/>
			<path fill="#1B1306" d="M302.38,1028.21c-21.34-2.05-44.36,12.38-46.94,34.63c-0.08,0.7-0.08,1.35-0.01,1.96
				c-1.11,1.51-1.7,3.46-1.37,5.77c2.71,19.19,18.93,34.79,39.43,34.96c20.79,0.18,41.22-15.01,46.42-35.15
				C346.13,1046.38,324.31,1030.31,302.38,1028.21z M322.54,1071c-4.49,10.8-16.76,18.7-28.34,18.13
				c-12.11-0.6-21.65-9.98-23.38-21.37c0.62-0.99,1.06-2.17,1.22-3.57C275.72,1032.54,334.34,1042.66,322.54,1071z"/>
			<path fill="#603813" stroke="#603813" stroke-width="16" stroke-miterlimit="10" d="M1266.39,604.26
				c-25.16-43.27-59.97-82.03-95.72-116.89c-36.44-35.54-87.51-57.66-118.81-96.24c-65.64-80.91-190.32-114.74-303.15-151.39
				c-25.87-8.4-50.41-20.14-76.48-27.9c-22.16-6.6-46.61-11.32-70.49-5.77c-47.55,11.05-75.86,64.1-52.89,104.51
				c4.48,7.88,10.47,14.57,17.77,19.93c0.38,0.97,1.11,1.82,2.34,2.35c0.33,0.14,0.66,0.27,0.99,0.41
				c-41.68,104.9-86.5,208.81-134.49,311.52c-48.79,104.44-100.81,207.64-155.95,309.4c-27.45,50.65-55.67,100.95-84.65,150.87
				c-14.62,25.18-29.44,50.27-44.45,75.26c-7.14,11.89-15.94,23.85-21.34,36.51c-3.96,9.3-4.47,19.3,1.55,27.09
				c13.59,17.59,38.8,10.88,57.64,3.08c25.33-10.49,50.54-21.34,75.76-32.12c50.06-21.4,99.96-43.25,149.31-66.41
				c65.5-30.73,130.07-63.79,192.35-101.01c69.94-41.8,133.2-99.33,211.76-122.41c91.57-26.91,159.38-108.91,261.03-124.38
				c44.1-6.71,79.44-13.53,86.45-41.19c6.01-23.75,49.33-22.15,71.87-36.98c18.76-12.34,35.9-28.82,42.4-50.24
				C1286.53,648.01,1278.05,624.3,1266.39,604.26z M551.41,266.41c5.15-24.49,25.49-44.54,50.2-50.74
				c23.8-5.97,48.29-0.65,70.23,6.2c24.74,7.73,48.79,17.48,72.83,26.79c100.38,38.84,198.8,83.16,287.88,141.49
				c74.43,48.74,142.36,107.29,196.15,177.32c-25.38-27.75-71.07-28.46-103.54-4.19c-20.37,15.22-40.27,45.93-37.03,71.14
				c-20.58-18.59-35.68-42.67-50.93-65.77c-21.38-32.38-44.47-62.37-80.83-79.66c-21.01-9.99-43.81-16.25-65.57-24.67
				c-22.31-8.63-41.73-20.29-58.61-36.63c-15.15-14.67-28.49-31.02-44-45.34c-15.97-14.74-34.34-25.97-55.86-32.18
				c-49.03-14.15-104.01-5.91-151.89-23.29c-1.01-1.35-2.8-2.11-4.52-1.94c-0.03-0.02-0.05-0.04-0.08-0.06
				C556.78,312.44,546.51,289.74,551.41,266.41z M185.81,1231.75c0.62,1.44,1.71,2.2,2.93,2.47c-6.31,2.14-12.63,4.23-18.97,6.28
				c-9.8,3.16-21.79,5.78-28.63-0.96c-8.35-8.23-2.07-22.77,4.42-33.48C314.4,927.58,459.53,636.62,578.78,337.52
				c50.46,19.66,112.95,3.59,162.25,25.58c39.54,17.64,63.29,56.48,97.69,81.91c37.91,28.03,87.31,38.75,127.15,64.24
				c31.74,20.31,56.02,49.22,76.79,79.88c9.34,13.8,17.87,28.25,28.45,41.15c5.18,6.32,10.89,12.2,17.25,17.4
				c3.65,2.98,7.67,6.5,11.93,8.6c4.53,2.23,9.3,2.95,12.59,7.08c3.99,5.02,6.3,14.43,3.78,20.84c-1.46,3.71-4.5,6.72-7.8,9.12
				c-16.79,12.21-36.56,18.06-55.18,26.43c-39.53,17.75-78.62,36.6-117.2,56.49c-76.64,39.52-151.28,83.19-223.43,130.7
				c-34.75,22.88-68.25,48.1-104.2,69.04c-16.61,9.67-33.84,18.33-51.84,24.79c-18.25,6.55-36.72,9.46-55.6,11.88
				c-31.26,4.01-62.09,10.5-79.13,40.39c-9.08,15.93-14.89,32.55-33.33,40.43c-14.8,6.32-31,7.37-46.08,12.73
				c-17.77,6.31-28.78,19.15-39.35,34.02c-5.58,7.84-11.19,16-18.86,22.11c-8.76,6.97-19.34,9.96-29.95,12.01
				c-18.57,3.58-37.42,4.81-53.25,17.05C188.52,1201.36,179.42,1216.82,185.81,1231.75z M1270.4,663.82
				c-3.96,18.62-15.82,33.52-31.24,45.86c-16.88,13.51-38.02,23.93-57.69,32.76c-143.67,64.5-285.75,133.08-424.45,208.42
				c-184.82,100.4-365.58,213.64-562.97,281.52c1.1-1.22,1.61-2.89,0.82-4.73c-7.36-17.2,14-33.2,29.33-37.91
				c17.6-5.4,36.24-4.79,53.38-12.47c16.01-7.17,25.66-20.82,35.49-34.5c4.72-6.57,9.58-13.25,15.89-18.5
				c7.51-6.26,16.57-9.63,25.79-12.03c14.9-3.87,30.73-5.69,44.45-13.6c14.78-8.52,21.55-22.7,28.99-36.94
				c8.96-17.14,21.4-28,40.2-33.52c16.43-4.83,33.48-5.87,50.18-8.33c38.31-5.64,73.57-22.56,106.77-43.14
				c35.26-21.85,68.77-46.54,103.54-69.19c75.07-48.89,152.82-93.56,232.68-133.72c43.7-21.98,88.25-41.53,132.66-61.83
				c17.68-8.09,46.24-34.98,34.04-51.8c-7.66-10.56-20.12-11.88-24.79-27.38c-3.83-12.69-2.64-27.49,4.24-39.83
				c13.97-25.06,45.62-38.38,73.53-35.59c27.91,2.79,51.87,19.26,68.81,40.12C1265,615.84,1275.54,639.66,1270.4,663.82z"/>
			<path fill="#FFB428" d="M1041.43,460.55c-17.06-10.02-33.83-19.58-48.61-32.61c-14.68-12.95-28.25-27.33-45.41-37.37
				c-16.84-9.85-35.64-15.87-53.56-23.73c-18.26-8.01-34.1-19.46-49.39-31.69c-11.65-9.32-23-19.01-35.04-27.88
				c-1.9-1.81-3.8-3.62-5.69-5.42c-1.35-1.29-3.1-1.92-4.97-2.05c-16.04-10.6-33.65-19.09-52.05-25.55
				c-42.97-15.09-89.56-20.09-135.45-24.81c-14.37-1.48-17.94,20.59-3.58,22.06c38.41,3.95,77.18,7.9,113.86,18.51
				c18.48,5.34,36.6,12.26,52.99,21.8c7.16,4.17,13.96,8.8,20.58,13.68c35.35,33.67,71.13,67.19,111.8,94.89
				c21.73,14.8,44.99,26.89,68.6,38.79c21.98,11.07,44.43,23.11,60.97,41.21c8.7,9.52,14.41,19.97,19.27,31.87
				c4.25,10.42,10.24,20.91,22.07,24.07c7.34,1.96,14.04-1.97,15.9-9.5C1103.48,507.2,1071.45,478.17,1041.43,460.55z"/>
			<path fill="#EDC341" d="M1216.83,641.98c-4.59-20.7-17.18-48.75-44.36-44.1c-13.43,2.3-21.29,14.09-20.81,26.56
				c0.23,5.86,6.75,19.07,2.49,23.31c-3.96,3.94-3.03,10.47,0.18,14.13c-8.43,21.39-19.78,41.44-38.95,56.73
				c-3.81,3.04-7.78,5.84-11.84,8.48c-24.94,9.98-49.43,21.22-73.88,32.46c-13.82,6.35-5.61,24.77,8.21,19.96
				c25.62-8.91,52-18.38,75.26-33.03c3.49-1.39,6.99-2.76,10.51-4.09c13.99-5.32,28.1-10.05,42.4-14.25
				c12-3.52,24.22-7.23,34.55-14.84C1224.68,695.57,1222.14,665.96,1216.83,641.98z"/>
			<path fill="#EDC341" d="M1240.91,604.93c-2.99-3.79-5.97-7.58-8.96-11.37c-3.49-4.42-11.03-5.34-15.84-1.28
				c-4.82,4.07-6.25,10.88-2.53,15.6l8.96,11.37c3.48,4.42,11.03,5.34,15.84,1.28C1243.2,616.45,1244.63,609.64,1240.91,604.93z"/>
			<path fill="#EDC341" d="M883.16,863.97c-2.41-5.84-8.75-7.22-14.68-5.19c-7.61,2.6-15.23,5.2-22.85,7.81
				c-5.91,2.02-8.52,9.78-6.47,14.77c2.41,5.85,8.75,7.22,14.68,5.19c7.62-2.6,15.23-5.2,22.85-7.81
				C882.6,876.72,885.21,868.96,883.16,863.97z"/>
			<path fill="#EDC341" d="M985.21,803.87c-7.83,3.36-15.72,5.18-24.06,5.9c-6.13,0.53-10.65,7.48-10.02,12.94
				c0.72,6.35,6.38,9.35,12.53,8.81c10.19-0.88,20.2-3.59,29.77-7.7C1007.15,817.95,998.96,797.97,985.21,803.87z"/>
			<path fill="#EDC341" d="M503.22,1053.4c-30.52-2.42-59.79,13.95-75.94,40.35c-5.86,9.58,6.21,16.62,14.43,13.78
				c16.66-5.75,32.23-14.1,46.57-24.58c3.01-2.2,4.45-4.9,4.73-7.57c2.22-0.11,4.44-0.1,6.63,0.07
				C514.06,1076.61,517.66,1054.55,503.22,1053.4z"/>
			<path fill="#EDC341" d="M341.96,1156.16c-0.98-6.04-6.18-9.72-12.53-8.82c-3.31,0.47-6.62,0.94-9.93,1.42
				c-5.92,0.84-10.94,7.29-10.02,12.94c0.98,6.04,6.18,9.72,12.53,8.81c3.31-0.47,6.62-0.94,9.93-1.42
				C337.86,1168.26,342.87,1161.82,341.96,1156.16z"/>
			<path fill="#EDEBDF" d="M576.04,970.44c-3,0.42-5.9,2.71-8.38,4.32c-4.84,3.13-9.56,6.22-15.42,6.11
				c-1.3-0.02-2.18,0.79-2.55,1.75c-1.43,0.94-1.78,3.12,0.18,4.08c9.9,4.86,29.22,6.47,32.85-8.71
				C583.8,973.44,581,969.75,576.04,970.44z"/>
			<path fill="#EDEBDF" d="M354.22,1093.08c0.7-5.14-5.04-9.19-11.98-6.79c-4.33,1.5-16.19,7.57-16.38,12.86
				c-0.05,1.27,0.34,2.52,0.13,3.79c-0.19,1.13-0.84,2.19-1.02,3.32c-0.35,2.12,1.25,4.84,3.76,4.38c1.03-0.19,1.9-0.9,2.73-1.56
				c5.74-4.52,13.67-5.43,19.26-10.3C352.89,1096.92,353.97,1094.93,354.22,1093.08z"/>
			<path fill="#EDEBDF" d="M706.3,551.24c-1.77-10.73-3.95-30.02,5.98-38.85c9.55-8.5-1.79-23.02-11.41-14.47
				c-8.73,7.77-12.87,17.63-14.32,28.61c-0.8,6.04-0.96,12.23-0.66,18.23c0.14,2.89,0.42,5.76,0.85,8.6
				c0.28,1.89,0.62,3.77,1.03,5.64c-0.06,0.68-0.03,1.21,0.05,1.67c-8.15,2.82-8.91,16.99,1.52,18.54
				c6.57,0.97,12.77-2.33,16.21-8.19C709.44,564.41,707.4,557.93,706.3,551.24z"/>
			<path fill="#EDEBDF" d="M1007.83,710.45c-12.26,7.03-24.81,10.87-38.58,11.82c-12.47,0.87-10.26,19.51,2.15,18.65
				c15.15-1.05,30-5.63,43.48-13.36C1025.89,721.24,1018.99,704.05,1007.83,710.45z"/>
			<path fill="#EDEBDF" d="M593.55,440.46c-4.83-0.17-9.85,3-10.97,7.83c-3.97-1.32-8.72-0.67-11.58,3.25
				c-2.88,3.94-3.2,10.67,1.35,13.21c5.5,3.08,11.9,3.7,18.08,0.58c5.81-2.93,10.36-8.34,11.19-14.65
				C602.27,445.73,598.87,440.65,593.55,440.46z"/>
			<path fill="#EDEBDF" d="M420.16,851.39c-6.59-9.88-22.29,2.45-15.74,12.28c3.49,5.23,1.9,11.92-2.35,16.77
				c-8.46,9.65,6.62,20.48,15.03,10.88C427.48,879.48,428.08,863.28,420.16,851.39z"/>
			<path fill="#EDEBDF" d="M863.49,735.63c-13.96-7.61-25.78-18.32-33.39-32.16c-7.74-14.08-12.28-31.89-30.49-35.98
				c-5.06-1.14-10.45,0.42-12.88,5.65c-2.01,4.31-0.19,11.05,4.82,12.17c8.5,1.91,12.02,8.41,15.37,15.68
				c3.33,7.24,6.73,14.33,11.27,20.88c8.42,12.14,19.84,22.14,32.96,29.3C861.6,756.88,874.03,741.38,863.49,735.63z"/>
			<path d="M615.12,782.91c-0.35-7.06-11.62-4.99-11.27,2.06c0.28,5.76-2.08,10.97-6.19,15.35c-5.13,5.46,3.69,11.76,8.77,6.35
				C612.68,800.01,615.55,791.48,615.12,782.91z"/>
			<path fill="#ECE07E" d="M894.3,797.49c-5.51-6.46-13-14.72-21.51-17.47c-7.37-2.39-14.87,2.26-16.25,9.94
				c-1.13,6.27,2.46,11.73,6.55,16.56c-0.74,0.78-1.4,1.69-1.93,2.78c-1.79,3.68-1.36,6.83,0.17,9.52
				c0.16,8.27,3.21,17.52,6.02,21.69c4.85,7.21,13.35,14.31,22.67,15.3c5.49,0.58,10.27-1.68,12.95-5.4
				c1.12-0.49,2.24-1.15,3.37-2.06C922.23,835.52,902.94,807.6,894.3,797.49z"/>
			<path fill="#ECE07E" d="M1024.51,730.25c-0.3,1.84-0.8,3.48-1.45,4.95c-1.27-2.92-4.98-4.73-8.43-1.94
				c-4.12,3.34-8.87,5.07-14.03,4.83c-4.9-0.22-7.31,4.78-6.09,8.12c-5.71-0.41-11.2-1.42-15.39-2.28
				c-6.99-1.44-8.72,9.6-1.79,11.03c12.54,2.59,26.14,5,38.92-0.52c10.05-4.34,17.74-12.77,19.46-23.3
				C1036.86,724.05,1025.66,723.14,1024.51,730.25z"/>
			<path fill="#FF422E" d="M651.36,948.81c-0.44-2.49-1.07-4.99-1.63-7.49c0.69-2.54,1.38-5.07,2.07-7.61
				c0.67-2.48,0.33-4.12-1.29-4.98c1.08-7.05-9.4-7.89-10.55-0.8l-3.81,23.5c0.26-1.6-3.88-2.66-6.65-1.39
				c-12.96,5.93-25.02,13.75-35.57,23.4c-1.89,1.73-2.39,3.85-1.95,5.7c-8.63,3.89-17.51,7.25-26.55,10.03
				c-1.46,0.45-2.56,1.29-3.33,2.3c-5.55,1.02-11.18,1.7-16.85,2.01c-6.1,0.34-6.15,8.02-1.75,10.26c2.02,6.14,10.08,7.3,17.26,5.82
				c13.03-2.7,26.4-6.62,38.93-11.43c20.82-7.99,39.92-20.93,51.26-40.18c0.55-0.58,0.98-1.28,1.19-2.1
				c0.17-0.32,0.36-0.62,0.53-0.94C654.08,952.24,653.15,950.04,651.36,948.81z"/>
			<path fill="#FF422E" d="M482.25,891.55c2.57-9.79-1.15-18.95-5.02-27.38c0.4-2.44-0.74-3.97-2.43-4.63
				c-1.12-2.6-4.2-4.48-7.76-2.8c-11.44,5.39-20.28,15.61-23.04,27.64c-2.16,9.41,0.55,20.72,9.44,25.19
				c6.23,3.13,12.98,1.12,17.83-3.34C476.73,903.19,480.66,897.6,482.25,891.55z"/>
		</g>
	</g>
</g>
</svg>
